@startuml
skinparam monochrome true
skinparam packageStyle rectangle
skinparam shadowing false

'left to right direction

skinparam classAttributeIconSize 0

hide circle
hide methods

class Cliente{
}
class Condutor{
}
class GestorAgricola{
}
class GestorDistribuicao{
}

class ParcelaAgricola {
    id
    designacao
    area
}

class Planta {
    especie
    nome
}

class DesignacaoEstadoFenologico{
designacaoEstadoFenologico
}

class FactorProducao {
    nomeComercial
    fabricante
}

class TipoFactorProducao{
    tipoFactorProducao
}

class FichaTecnica{
}

class ElementoSubstancias{
    nomeElementoSubstancia
    quantidade
}

'arqcp
class Sensor{
id
marca
modelo

}


class TipoSensor{
    tipoSensor
}

class LeituraSensor{
valor
hora
}

class CadernoCampo {
nome
}

class SistemaDeRega {

}
class TipoRega{
tipoRega
}

class Rega{
    quantidade
    horarioinicio
    horariofim
    parcela
}
class Colheita{
quantidade
}
class Monda{

}
class TipoMonda{
tipoMonda
}

class AplicacaoFitofarmaco{
modo
quantidadeFator
}
class SetorDeRega{
    id
    debito
    area
    designacao
    dataInsercao
}
class TipoDistribuicao{
tipoDistribuicao
}
class ProdutoAgricola{
    nomeProdutoAgricola

}
class EstadoFenologico{
}

class Cultura{
    quantidade
    dataInicio
    dataFim
}

class Unidade{
    designação
}
class TipoLeitura{
tipoLeitura
}

class TipoPlanta{
    tipoPlanta
}
class Formulacao{
    tipoFormulacao
}

class OperacaoAgricola{
        dataRealizacao
        quantidadeAplicada
}
class TipoOperacaoAgricola{
tipoOperacaoAgricola
}


class Fertilizacao{
modo
quantidadeFator

}

class TipoFertilizacao{
    tipoFertilizacao
}

class PlanoRega{
    horasRega
    duracao

}
class Regularidade{
    tipoRegularidade
}
class Controlador{

}

class EstacaoMetereologica{
}

class Rega{
}

class Aplicacoes{
}

class TipoAplicacao{
tipoAplicacao
}
'esinf

class Produtor{
nomeProdutor
}

class HubsDestribuicao{
}
class TipodeHub{
tipoDeHub
}

class HorarioFuncionamento{
dataInicio
dataFim
}

class Cabaz{
    nomeProdutor
    quantidade
    data
}

'fsiap
class Estrutura{
}
class Zona{
temperatura
}
class ZonaA{
}
class ZonaB{
}
class ZonaC{
}
class ZonaD{
}
class ZonaE{
}
class Dimensao{
altura
largura
comprimento
}
class Parede{
}
class ParedeExterior{
}
class ParedeInterior{
}
class Porta{
}
class Janela{
}
class Telhado{
}
class Pavimento{
}

class Material{
}
class CaracteristicasTermicas{
}
class ParteDaEstrutura{
}
class InstalacaoAgricola{
}

Planta "1..*" -- "1" TipoPlanta : tem >
Planta "1" -- "1..*" Cultura
Planta -- ProdutoAgricola
Cultura "1..*" -- "1" Unidade : têm >
Unidade "1" -- "1..*" OperacaoAgricola : tem <
Sensor "1" -- "1..*" LeituraSensor: mede >

Formulacao "1" -- "1" FactorProducao: tem <
FactorProducao "1" -- "1" TipoFactorProducao: tem >

OperacaoAgricola <|-- Fertilizacao
OperacaoAgricola <|-- Rega
OperacaoAgricola <|-- Colheita
OperacaoAgricola <|-- Monda
OperacaoAgricola <|-- AplicacaoFitofarmaco
OperacaoAgricola "1" -- "1..*"  ParcelaAgricola : tem >
Cabaz "1" -- "1..*" ProdutoAgricola : contém >
Controlador "1" -- "1" SistemaDeRega : contém <
Controlador "1" -- "1" Rega : controla >
Controlador "1" -- "1" PlanoRega : define >
OperacaoAgricola "1" -- "1" TipoOperacaoAgricola : tem >
Cabaz "1" -- "1..*" HubsDestribuicao : são depositados >
Sensor "1"-- "1" TipoSensor : tem  >
Sensor "1" -- "1" TipoLeitura : tem  >
ProdutoAgricola "1..*" -- "1" OperacaoAgricola : recolhidos  >

ElementoSubstancias "1..*" -- "1" FichaTecnica : inclui  <
PlanoRega "1" -- "1..*" ParcelaAgricola : tem >
PlanoRega "1" -- "1..*" LeituraSensor : contem >
PlanoRega "1" - "1..*" Regularidade : tem >
Fertilizacao "1..*" -- "1" TipoFertilizacao : tem >
Fertilizacao "1..*" -- "1" FactorProducao : usa >
FichaTecnica "1..*" -- "1" FactorProducao : tem <
CadernoCampo "1" -- "1..*" OperacaoAgricola : regista >
CadernoCampo "1" -- "1..*" LeituraSensor : regista >

ParcelaAgricola "1" -- "1" Rega : realiza se <
EstacaoMetereologica "1" -- "1..*" Sensor : constituída por >
Rega "1" -- "1" TipoRega : tem >
Zona <|--  ZonaA
Zona <|--  ZonaB
Zona <|--  ZonaC
Zona <|--  ZonaD
Zona <|--  ZonaE

Zona -- Dimensao : tem >
Estrutura "1" -- "1..*" ParteDaEstrutura : tem >
Estrutura "1" -- "1" Dimensao : tem >
Dimensao "1" -- "1" ParteDaEstrutura : tem <
Material "1..*" -- "1" ParteDaEstrutura : tem <
CaracteristicasTermicas "1" -- "1" ParteDaEstrutura : tem <
Parede <|--  ParedeExterior
Parede <|--  ParedeInterior
ParteDaEstrutura <|--  Porta
ParteDaEstrutura <|--  Parede
ParteDaEstrutura <|--  Telhado
ParteDaEstrutura <|--  Janela
ParteDaEstrutura <|--  Pavimento
HubsDestribuicao "1" -- "1" HorarioFuncionamento : tem >
HubsDestribuicao "1" -- "1" TipodeHub : tem >

SetorDeRega "1" -- "1..*" ParcelaAgricola : serve >
SetorDeRega "1" -- "1..*" Cultura : estruturado a partir de >
SetorDeRega "1" -- "1..*" TipoDistribuicao : tem >
Rega "1" -- "1..*" SetorDeRega : distribuida em >

Cliente "1" -- "1..*" Cabaz : encomenda >
Cliente "1" -- "1..*" Cabaz : recolhe >
Condutor "1" -- "1..*" Cabaz : recolhe >
Condutor "1" --"1..*" HubsDestribuicao : deposita em >
GestorAgricola "1" -- "1..*" ParcelaAgricola : gere >
GestorAgricola "1" -- "1..*" CadernoCampo : regista no >
GestorDistribuicao"1" -- "1..*" ProdutoAgricola : recolhe >
GestorAgricola "1" -- "1..*" SistemaDeRega : gere >
Produtor "1" -- "1..*" ProdutoAgricola : produz >
EstadoFenologico "1" -- "1" OperacaoAgricola : determina >
EstadoFenologico "1" -- "1" DesignacaoEstadoFenologico : tem >
Cultura "1..*" -- "1" EstadoFenologico : contém >
InstalacaoAgricola "1" -- "1..*" Edificio : contém >
InstalacaoAgricola "1" -- "1..*" ParcelaAgricola : contém >
Edificio "1" -- "1" Estrutura : contém >
Estrutura "1" -- "1..*" Zona : contém >
TipoEdificio "1" -- "1..*" Edificio : contém <

Aplicacoes "1" -- "1" TipoAplicacao : tem >
Aplicacoes "1..*" -- "1" SistemaDeRega : realizado através >

AplicacaoFatorProducao "1"-- "1" FactorProducao : tem <
AplicacaoFitofarmaco --FactorProducao

Monda "1" -- "1" TipoMonda
Monda --FactorProducao : usa >
Colheita "1" -- "1..*" ProdutoAgricola

@enduml